<?xml version="1.0" encoding="UTF-8" standalone="no"?>
<!DOCTYPE svg PUBLIC "-//W3C//DTD SVG 1.1//EN" "http://www.w3.org/Graphics/SVG/1.1/DTD/svg11.dtd">
<svg xmlns="http://www.w3.org/2000/svg" version="1.1" viewBox="0.00 0.00 295.00 198.00">
<g stroke-width="2.00" fill="none" stroke-linecap="butt">
<path stroke="#fae184" vector-effect="non-scaling-stroke" d="
  M 178.09 26.60
  Q 171.95 33.56 166.07 40.54
  Q 157.62 50.54 148.74 60.26
  Q 145.55 63.75 144.57 65.49
  A 2.16 1.84 85.4 0 1 144.26 65.92
  Q 134.38 76.60 129.54 82.29
  Q 118.51 95.25 108.13 106.61
  C 106.14 108.79 105.10 110.74 103.34 112.84
  A 0.74 0.73 19.9 0 0 103.91 114.04
  L 141.64 114.04
  A 0.60 0.60 0.0 0 1 142.19 114.87
  L 115.44 179.19"
/>
<path stroke="#f6d180" vector-effect="non-scaling-stroke" d="
  M 115.44 179.19
  L 110.87 189.46
  A 0.15 0.15 0.0 0 0 111.13 189.62
  L 189.31 93.33
  A 0.42 0.42 0.0 0 0 188.98 92.64
  L 153.04 92.64
  A 0.59 0.59 0.0 0 1 152.50 91.80
  L 185.57 18.84
  A 0.18 0.18 0.0 0 0 185.28 18.65
  L 178.09 26.60"
/>
<path stroke="#f5b40c" vector-effect="non-scaling-stroke" d="
  M 115.44 179.19
  Q 120.04 174.77 122.34 171.08
  C 124.74 167.24 127.30 163.69 129.27 160.08
  C 132.41 154.33 136.41 146.90 140.61 140.90
  C 143.35 136.99 144.96 132.54 147.75 128.59
  C 151.06 123.91 152.76 121.66 155.74 115.91
  Q 158.94 109.76 163.47 104.58
  A 0.72 0.71 -65.2 0 0 163.04 103.40
  Q 161.49 103.16 159.50 103.19
  Q 138.31 103.51 134.34 103.57
  Q 133.20 103.59 131.37 103.11
  A 0.53 0.53 0.0 0 1 131.05 102.31
  Q 144.78 81.09 151.22 71.72
  C 153.42 68.53 155.05 64.52 157.68 60.90
  C 161.54 55.56 165.17 50.90 168.74 44.76
  Q 171.18 40.57 174.13 36.70
  A 2.53 2.30 -19.1 0 0 174.42 36.17
  L 178.09 26.60"
/>
<path stroke="#86959e" vector-effect="non-scaling-stroke" d="
  M 106.66 55.91
  A 0.33 0.33 0.0 0 0 106.99 56.24
  L 142.89 56.24
  A 0.33 0.33 0.0 0 0 143.22 55.91
  L 143.22 24.88
  A 0.33 0.33 0.0 0 0 142.75 24.58
  L 106.85 41.59
  A 0.33 0.33 0.0 0 0 106.66 41.89
  L 106.66 55.91"
/>
<path stroke="#86959e" vector-effect="non-scaling-stroke" d="
  M 146.70 54.97
  A 0.32 0.32 0.0 0 0 147.26 55.18
  L 165.85 33.82
  A 0.32 0.32 0.0 0 0 165.75 33.32
  L 147.16 24.44
  A 0.32 0.32 0.0 0 0 146.70 24.73
  L 146.70 54.97"
/>
<path stroke="#86959e" vector-effect="non-scaling-stroke" d="
  M 182.83 56.31
  A 0.52 0.52 0.0 0 0 183.35 55.79
  L 183.35 42.14
  A 0.52 0.52 0.0 0 0 183.09 41.69
  L 181.16 40.58
  A 0.52 0.52 0.0 0 0 180.42 40.81
  L 173.73 55.58
  A 0.52 0.52 0.0 0 0 174.21 56.31
  L 182.83 56.31"
/>
<path stroke="#86959e" vector-effect="non-scaling-stroke" d="
  M 77.59 55.46
  A 0.44 0.44 0.0 0 0 77.78 56.30
  L 102.82 56.30
  A 0.44 0.44 0.0 0 0 103.26 55.86
  L 103.26 44.00
  A 0.44 0.44 0.0 0 0 102.63 43.60
  L 77.59 55.46"
/>
<path stroke="#86959e" vector-effect="non-scaling-stroke" d="
  M 212.15 56.31
  A 0.43 0.43 0.0 0 0 212.34 55.49
  L 187.40 43.58
  A 0.43 0.43 0.0 0 0 186.78 43.97
  L 186.78 55.88
  A 0.43 0.43 0.0 0 0 187.21 56.31
  L 212.15 56.31"
/>
<path stroke="#86959e" vector-effect="non-scaling-stroke" d="
  M 125.86 79.66
  A 0.34 0.34 0.0 0 0 126.11 79.54
  L 142.88 60.28
  A 0.34 0.34 0.0 0 0 142.62 59.72
  L 106.98 59.72
  A 0.34 0.34 0.0 0 0 106.64 60.06
  L 106.64 79.32
  A 0.34 0.34 0.0 0 0 106.98 79.66
  L 125.86 79.66"
/>
<path stroke="#86959e" vector-effect="non-scaling-stroke" d="
  M 103.25 60.03
  A 0.36 0.36 0.0 0 0 102.89 59.67
  L 77.67 59.67
  A 0.36 0.36 0.0 0 0 77.31 60.03
  L 77.31 79.33
  A 0.36 0.36 0.0 0 0 77.67 79.69
  L 102.89 79.69
  A 0.36 0.36 0.0 0 0 103.25 79.33
  L 103.25 60.03"
/>
<path stroke="#86959e" vector-effect="non-scaling-stroke" d="
  M 172.40 59.71
  A 0.52 0.52 0.0 0 0 171.92 60.02
  L 163.32 79.00
  A 0.52 0.52 0.0 0 0 163.80 79.73
  L 182.87 79.73
  A 0.52 0.52 0.0 0 0 183.39 79.21
  L 183.39 60.23
  A 0.52 0.52 0.0 0 0 182.87 59.71
  L 172.40 59.71"
/>
<path stroke="#86959e" vector-effect="non-scaling-stroke" d="
  M 212.7669 60.0427
  A 0.33 0.33 0.0 0 0 212.4375 59.7121
  L 187.1575 59.6680
  A 0.33 0.33 0.0 0 0 186.8269 59.9974
  L 186.7931 79.3973
  A 0.33 0.33 0.0 0 0 187.1225 79.7279
  L 212.4025 79.7720
  A 0.33 0.33 0.0 0 0 212.7331 79.4426
  L 212.7669 60.0427"
/>
<path stroke="#86959e" vector-effect="non-scaling-stroke" d="
  M 52.09 79.75
  L 73.13 79.75
  A 0.49 0.48 0.0 0 0 73.62 79.27
  L 73.62 67.54
  A 0.40 0.39 -14.8 0 0 73.03 67.20
  L 51.98 79.36
  A 0.21 0.21 0.0 0 0 52.09 79.75"
/>
<path stroke="#86959e" vector-effect="non-scaling-stroke" d="
  M 237.73 79.81
  A 0.30 0.30 0.0 0 0 237.88 79.25
  L 216.81 67.08
  A 0.30 0.30 0.0 0 0 216.36 67.34
  L 216.36 79.51
  A 0.30 0.30 0.0 0 0 216.66 79.81
  L 237.73 79.81"
/>
<path stroke="#86959e" vector-effect="non-scaling-stroke" d="
  M 73.64 83.36
  A 0.44 0.44 0.0 0 0 73.20 82.92
  L 48.92 82.92
  A 0.44 0.44 0.0 0 0 48.48 83.36
  L 48.48 103.34
  A 0.44 0.44 0.0 0 0 48.92 103.78
  L 73.20 103.78
  A 0.44 0.44 0.0 0 0 73.64 103.34
  L 73.64 83.36"
/>
<path stroke="#86959e" vector-effect="non-scaling-stroke" d="
  M 183.43 83.43
  A 0.53 0.53 0.0 0 0 182.90 82.90
  L 161.72 82.90
  A 0.53 0.53 0.0 0 0 161.24 83.21
  L 159.30 87.50
  A 0.53 0.53 0.0 0 0 159.78 88.25
  L 182.90 88.25
  A 0.53 0.53 0.0 0 0 183.43 87.72
  L 183.43 83.43"
/>
<path stroke="#86959e" vector-effect="non-scaling-stroke" d="
  M 241.4973 83.4020
  A 0.48 0.48 0.0 0 0 241.0182 82.9211
  L 216.8382 82.8789
  A 0.48 0.48 0.0 0 0 216.3574 83.3581
  L 216.3227 103.2380
  A 0.48 0.48 0.0 0 0 216.8018 103.7189
  L 240.9818 103.7611
  A 0.48 0.48 0.0 0 0 241.4626 103.2819
  L 241.4973 83.4020"
/>
<path stroke="#86959e" vector-effect="non-scaling-stroke" d="
  M 103.2675 83.3127
  A 0.36 0.36 0.0 0 0 102.9082 82.9520
  L 77.6882 82.9080
  A 0.36 0.36 0.0 0 0 77.3276 83.2674
  L 77.2925 103.3873
  A 0.36 0.36 0.0 0 0 77.6518 103.7480
  L 102.8718 103.7920
  A 0.36 0.36 0.0 0 0 103.2324 103.4326
  L 103.2675 83.3127"
/>
<path stroke="#86959e" vector-effect="non-scaling-stroke" d="
  M 107.03 83.02
  A 0.42 0.42 0.0 0 0 106.61 83.44
  L 106.61 100.83
  A 0.42 0.42 0.0 0 0 107.35 101.10
  L 122.48 83.72
  A 0.42 0.42 0.0 0 0 122.17 83.02
  L 107.03 83.02"
/>
<path stroke="#86959e" vector-effect="non-scaling-stroke" d="
  M 198.22 88.19
  A 0.45 0.45 0.0 0 1 198.56 88.92
  L 187.14 103.01
  A 0.45 0.45 0.0 0 0 187.48 103.74
  L 212.34 103.74
  A 0.45 0.45 0.0 0 0 212.79 103.29
  L 212.79 83.40
  A 0.45 0.45 0.0 0 0 212.34 82.95
  L 187.22 82.95
  A 0.45 0.45 0.0 0 0 186.77 83.40
  L 186.77 87.74
  A 0.45 0.45 0.0 0 0 187.22 88.19
  L 198.22 88.19"
/>
<path stroke="#86959e" vector-effect="non-scaling-stroke" d="
  M 73.6176 107.3420
  A 0.30 0.30 0.0 0 0 73.3181 107.0414
  L 48.7782 106.9986
  A 0.30 0.30 0.0 0 0 48.4776 107.2981
  L 48.4424 127.4980
  A 0.30 0.30 0.0 0 0 48.7419 127.7986
  L 73.2818 127.8414
  A 0.30 0.30 0.0 0 0 73.5824 127.5419
  L 73.6176 107.3420"
/>
<path stroke="#86959e" vector-effect="non-scaling-stroke" d="
  M 92.99 118.56
  A 0.35 0.35 0.0 0 1 92.72 117.98
  L 101.76 107.60
  A 0.35 0.35 0.0 0 0 101.49 107.02
  L 77.68 107.02
  A 0.35 0.35 0.0 0 0 77.33 107.37
  L 77.33 127.44
  A 0.35 0.35 0.0 0 0 77.68 127.79
  L 102.95 127.79
  A 0.35 0.35 0.0 0 0 103.30 127.44
  L 103.30 118.91
  A 0.35 0.35 0.0 0 0 102.95 118.56
  L 92.99 118.56"
/>
<path stroke="#86959e" vector-effect="non-scaling-stroke" d="
  M 212.7327 107.5174
  A 0.51 0.51 0.0 0 0 212.2218 107.0083
  L 187.3019 107.0518
  A 0.51 0.51 0.0 0 0 186.7928 107.5627
  L 186.8273 127.3426
  A 0.51 0.51 0.0 0 0 187.3382 127.8517
  L 212.2581 127.8082
  A 0.51 0.51 0.0 0 0 212.7672 127.2973
  L 212.7327 107.5174"
/>
<path stroke="#86959e" vector-effect="non-scaling-stroke" d="
  M 241.51 107.48
  A 0.43 0.43 0.0 0 0 241.08 107.05
  L 216.78 107.05
  A 0.43 0.43 0.0 0 0 216.35 107.48
  L 216.35 127.40
  A 0.43 0.43 0.0 0 0 216.78 127.83
  L 241.08 127.83
  A 0.43 0.43 0.0 0 0 241.51 127.40
  L 241.51 107.48"
/>
<path stroke="#86959e" vector-effect="non-scaling-stroke" d="
  M 183.07 127.83
  A 0.34 0.34 0.0 0 0 183.41 127.49
  L 183.41 108.61
  A 0.34 0.34 0.0 0 0 182.81 108.39
  L 167.47 127.28
  A 0.34 0.34 0.0 0 0 167.73 127.83
  L 183.07 127.83"
/>
<path stroke="#86959e" vector-effect="non-scaling-stroke" d="
  M 106.60 127.14
  A 0.68 0.68 0.0 0 0 107.28 127.82
  L 131.25 127.82
  A 0.68 0.68 0.0 0 0 131.87 127.42
  L 135.48 119.45
  A 0.68 0.68 0.0 0 0 134.87 118.49
  L 107.28 118.49
  A 0.68 0.68 0.0 0 0 106.60 119.17
  L 106.60 127.14"
/>
<path stroke="#86959e" vector-effect="non-scaling-stroke" d="
  M 50.88 130.95
  A 0.51 0.51 0.0 0 0 50.63 131.90
  L 72.89 144.76
  A 0.51 0.51 0.0 0 0 73.66 144.32
  L 73.66 131.46
  A 0.51 0.51 0.0 0 0 73.15 130.95
  L 50.88 130.95"
/>
<path stroke="#86959e" vector-effect="non-scaling-stroke" d="
  M 106.63 145.29
  A 0.30 0.30 0.0 0 0 106.93 145.59
  L 123.88 145.59
  A 0.30 0.30 0.0 0 0 124.15 145.41
  L 130.51 131.40
  A 0.30 0.30 0.0 0 0 130.23 130.98
  L 106.93 130.98
  A 0.30 0.30 0.0 0 0 106.63 131.28
  L 106.63 145.29"
/>
<path stroke="#86959e" vector-effect="non-scaling-stroke" d="
  M 212.8143 131.3854
  A 0.37 0.37 0.0 0 0 212.4455 131.0141
  L 187.2057 130.9260
  A 0.37 0.37 0.0 0 0 186.8344 131.2947
  L 186.7857 145.2346
  A 0.37 0.37 0.0 0 0 187.1545 145.6059
  L 212.3943 145.6940
  A 0.37 0.37 0.0 0 0 212.7656 145.3253
  L 212.8143 131.3854"
/>
<path stroke="#86959e" vector-effect="non-scaling-stroke" d="
  M 239.39 131.64
  A 0.35 0.35 0.0 0 0 239.21 130.99
  L 216.69 130.99
  A 0.35 0.35 0.0 0 0 216.34 131.34
  L 216.34 144.98
  A 0.35 0.35 0.0 0 0 216.87 145.28
  L 239.39 131.64"
/>
<path stroke="#86959e" vector-effect="non-scaling-stroke" d="
  M 103.2678 131.2473
  A 0.31 0.31 0.0 0 0 102.9572 130.9379
  L 77.5773 130.9822
  A 0.31 0.31 0.0 0 0 77.2678 131.2927
  L 77.2922 145.2927
  A 0.31 0.31 0.0 0 0 77.6028 145.6021
  L 102.9827 145.5578
  A 0.31 0.31 0.0 0 0 103.2922 145.2473
  L 103.2678 131.2473"
/>
<path stroke="#86959e" vector-effect="non-scaling-stroke" d="
  M 183.43 131.33
  A 0.32 0.32 0.0 0 0 183.11 131.01
  L 164.62 131.01
  A 0.32 0.32 0.0 0 0 164.37 131.13
  L 153.03 145.10
  A 0.32 0.32 0.0 0 0 153.28 145.62
  L 183.11 145.62
  A 0.32 0.32 0.0 0 0 183.43 145.30
  L 183.43 131.33"
/>
</g>
<path fill="none" d="
  M 295.00 0.00
  L 295.00 198.00
  L 0.00 198.00
  L 0.00 0.00
  L 295.00 0.00
  Z
  M 178.09 26.60
  Q 171.95 33.56 166.07 40.54
  Q 157.62 50.54 148.74 60.26
  Q 145.55 63.75 144.57 65.49
  A 2.16 1.84 85.4 0 1 144.26 65.92
  Q 134.38 76.60 129.54 82.29
  Q 118.51 95.25 108.13 106.61
  C 106.14 108.79 105.10 110.74 103.34 112.84
  A 0.74 0.73 19.9 0 0 103.91 114.04
  L 141.64 114.04
  A 0.60 0.60 0.0 0 1 142.19 114.87
  L 115.44 179.19
  L 110.87 189.46
  A 0.15 0.15 0.0 0 0 111.13 189.62
  L 189.31 93.33
  A 0.42 0.42 0.0 0 0 188.98 92.64
  L 153.04 92.64
  A 0.59 0.59 0.0 0 1 152.50 91.80
  L 185.57 18.84
  A 0.18 0.18 0.0 0 0 185.28 18.65
  L 178.09 26.60
  Z
  M 106.66 55.91
  A 0.33 0.33 0.0 0 0 106.99 56.24
  L 142.89 56.24
  A 0.33 0.33 0.0 0 0 143.22 55.91
  L 143.22 24.88
  A 0.33 0.33 0.0 0 0 142.75 24.58
  L 106.85 41.59
  A 0.33 0.33 0.0 0 0 106.66 41.89
  L 106.66 55.91
  Z
  M 146.70 54.97
  A 0.32 0.32 0.0 0 0 147.26 55.18
  L 165.85 33.82
  A 0.32 0.32 0.0 0 0 165.75 33.32
  L 147.16 24.44
  A 0.32 0.32 0.0 0 0 146.70 24.73
  L 146.70 54.97
  Z
  M 182.83 56.31
  A 0.52 0.52 0.0 0 0 183.35 55.79
  L 183.35 42.14
  A 0.52 0.52 0.0 0 0 183.09 41.69
  L 181.16 40.58
  A 0.52 0.52 0.0 0 0 180.42 40.81
  L 173.73 55.58
  A 0.52 0.52 0.0 0 0 174.21 56.31
  L 182.83 56.31
  Z
  M 77.59 55.46
  A 0.44 0.44 0.0 0 0 77.78 56.30
  L 102.82 56.30
  A 0.44 0.44 0.0 0 0 103.26 55.86
  L 103.26 44.00
  A 0.44 0.44 0.0 0 0 102.63 43.60
  L 77.59 55.46
  Z
  M 212.15 56.31
  A 0.43 0.43 0.0 0 0 212.34 55.49
  L 187.40 43.58
  A 0.43 0.43 0.0 0 0 186.78 43.97
  L 186.78 55.88
  A 0.43 0.43 0.0 0 0 187.21 56.31
  L 212.15 56.31
  Z
  M 125.86 79.66
  A 0.34 0.34 0.0 0 0 126.11 79.54
  L 142.88 60.28
  A 0.34 0.34 0.0 0 0 142.62 59.72
  L 106.98 59.72
  A 0.34 0.34 0.0 0 0 106.64 60.06
  L 106.64 79.32
  A 0.34 0.34 0.0 0 0 106.98 79.66
  L 125.86 79.66
  Z
  M 103.25 60.03
  A 0.36 0.36 0.0 0 0 102.89 59.67
  L 77.67 59.67
  A 0.36 0.36 0.0 0 0 77.31 60.03
  L 77.31 79.33
  A 0.36 0.36 0.0 0 0 77.67 79.69
  L 102.89 79.69
  A 0.36 0.36 0.0 0 0 103.25 79.33
  L 103.25 60.03
  Z
  M 172.40 59.71
  A 0.52 0.52 0.0 0 0 171.92 60.02
  L 163.32 79.00
  A 0.52 0.52 0.0 0 0 163.80 79.73
  L 182.87 79.73
  A 0.52 0.52 0.0 0 0 183.39 79.21
  L 183.39 60.23
  A 0.52 0.52 0.0 0 0 182.87 59.71
  L 172.40 59.71
  Z
  M 212.7669 60.0427
  A 0.33 0.33 0.0 0 0 212.4375 59.7121
  L 187.1575 59.6680
  A 0.33 0.33 0.0 0 0 186.8269 59.9974
  L 186.7931 79.3973
  A 0.33 0.33 0.0 0 0 187.1225 79.7279
  L 212.4025 79.7720
  A 0.33 0.33 0.0 0 0 212.7331 79.4426
  L 212.7669 60.0427
  Z
  M 52.09 79.75
  L 73.13 79.75
  A 0.49 0.48 0.0 0 0 73.62 79.27
  L 73.62 67.54
  A 0.40 0.39 -14.8 0 0 73.03 67.20
  L 51.98 79.36
  A 0.21 0.21 0.0 0 0 52.09 79.75
  Z
  M 237.73 79.81
  A 0.30 0.30 0.0 0 0 237.88 79.25
  L 216.81 67.08
  A 0.30 0.30 0.0 0 0 216.36 67.34
  L 216.36 79.51
  A 0.30 0.30 0.0 0 0 216.66 79.81
  L 237.73 79.81
  Z
  M 73.64 83.36
  A 0.44 0.44 0.0 0 0 73.20 82.92
  L 48.92 82.92
  A 0.44 0.44 0.0 0 0 48.48 83.36
  L 48.48 103.34
  A 0.44 0.44 0.0 0 0 48.92 103.78
  L 73.20 103.78
  A 0.44 0.44 0.0 0 0 73.64 103.34
  L 73.64 83.36
  Z
  M 183.43 83.43
  A 0.53 0.53 0.0 0 0 182.90 82.90
  L 161.72 82.90
  A 0.53 0.53 0.0 0 0 161.24 83.21
  L 159.30 87.50
  A 0.53 0.53 0.0 0 0 159.78 88.25
  L 182.90 88.25
  A 0.53 0.53 0.0 0 0 183.43 87.72
  L 183.43 83.43
  Z
  M 241.4973 83.4020
  A 0.48 0.48 0.0 0 0 241.0182 82.9211
  L 216.8382 82.8789
  A 0.48 0.48 0.0 0 0 216.3574 83.3581
  L 216.3227 103.2380
  A 0.48 0.48 0.0 0 0 216.8018 103.7189
  L 240.9818 103.7611
  A 0.48 0.48 0.0 0 0 241.4626 103.2819
  L 241.4973 83.4020
  Z
  M 103.2675 83.3127
  A 0.36 0.36 0.0 0 0 102.9082 82.9520
  L 77.6882 82.9080
  A 0.36 0.36 0.0 0 0 77.3276 83.2674
  L 77.2925 103.3873
  A 0.36 0.36 0.0 0 0 77.6518 103.7480
  L 102.8718 103.7920
  A 0.36 0.36 0.0 0 0 103.2324 103.4326
  L 103.2675 83.3127
  Z
  M 107.03 83.02
  A 0.42 0.42 0.0 0 0 106.61 83.44
  L 106.61 100.83
  A 0.42 0.42 0.0 0 0 107.35 101.10
  L 122.48 83.72
  A 0.42 0.42 0.0 0 0 122.17 83.02
  L 107.03 83.02
  Z
  M 198.22 88.19
  A 0.45 0.45 0.0 0 1 198.56 88.92
  L 187.14 103.01
  A 0.45 0.45 0.0 0 0 187.48 103.74
  L 212.34 103.74
  A 0.45 0.45 0.0 0 0 212.79 103.29
  L 212.79 83.40
  A 0.45 0.45 0.0 0 0 212.34 82.95
  L 187.22 82.95
  A 0.45 0.45 0.0 0 0 186.77 83.40
  L 186.77 87.74
  A 0.45 0.45 0.0 0 0 187.22 88.19
  L 198.22 88.19
  Z
  M 73.6176 107.3420
  A 0.30 0.30 0.0 0 0 73.3181 107.0414
  L 48.7782 106.9986
  A 0.30 0.30 0.0 0 0 48.4776 107.2981
  L 48.4424 127.4980
  A 0.30 0.30 0.0 0 0 48.7419 127.7986
  L 73.2818 127.8414
  A 0.30 0.30 0.0 0 0 73.5824 127.5419
  L 73.6176 107.3420
  Z
  M 92.99 118.56
  A 0.35 0.35 0.0 0 1 92.72 117.98
  L 101.76 107.60
  A 0.35 0.35 0.0 0 0 101.49 107.02
  L 77.68 107.02
  A 0.35 0.35 0.0 0 0 77.33 107.37
  L 77.33 127.44
  A 0.35 0.35 0.0 0 0 77.68 127.79
  L 102.95 127.79
  A 0.35 0.35 0.0 0 0 103.30 127.44
  L 103.30 118.91
  A 0.35 0.35 0.0 0 0 102.95 118.56
  L 92.99 118.56
  Z
  M 212.7327 107.5174
  A 0.51 0.51 0.0 0 0 212.2218 107.0083
  L 187.3019 107.0518
  A 0.51 0.51 0.0 0 0 186.7928 107.5627
  L 186.8273 127.3426
  A 0.51 0.51 0.0 0 0 187.3382 127.8517
  L 212.2581 127.8082
  A 0.51 0.51 0.0 0 0 212.7672 127.2973
  L 212.7327 107.5174
  Z
  M 241.51 107.48
  A 0.43 0.43 0.0 0 0 241.08 107.05
  L 216.78 107.05
  A 0.43 0.43 0.0 0 0 216.35 107.48
  L 216.35 127.40
  A 0.43 0.43 0.0 0 0 216.78 127.83
  L 241.08 127.83
  A 0.43 0.43 0.0 0 0 241.51 127.40
  L 241.51 107.48
  Z
  M 183.07 127.83
  A 0.34 0.34 0.0 0 0 183.41 127.49
  L 183.41 108.61
  A 0.34 0.34 0.0 0 0 182.81 108.39
  L 167.47 127.28
  A 0.34 0.34 0.0 0 0 167.73 127.83
  L 183.07 127.83
  Z
  M 106.60 127.14
  A 0.68 0.68 0.0 0 0 107.28 127.82
  L 131.25 127.82
  A 0.68 0.68 0.0 0 0 131.87 127.42
  L 135.48 119.45
  A 0.68 0.68 0.0 0 0 134.87 118.49
  L 107.28 118.49
  A 0.68 0.68 0.0 0 0 106.60 119.17
  L 106.60 127.14
  Z
  M 50.88 130.95
  A 0.51 0.51 0.0 0 0 50.63 131.90
  L 72.89 144.76
  A 0.51 0.51 0.0 0 0 73.66 144.32
  L 73.66 131.46
  A 0.51 0.51 0.0 0 0 73.15 130.95
  L 50.88 130.95
  Z
  M 106.63 145.29
  A 0.30 0.30 0.0 0 0 106.93 145.59
  L 123.88 145.59
  A 0.30 0.30 0.0 0 0 124.15 145.41
  L 130.51 131.40
  A 0.30 0.30 0.0 0 0 130.23 130.98
  L 106.93 130.98
  A 0.30 0.30 0.0 0 0 106.63 131.28
  L 106.63 145.29
  Z
  M 212.8143 131.3854
  A 0.37 0.37 0.0 0 0 212.4455 131.0141
  L 187.2057 130.9260
  A 0.37 0.37 0.0 0 0 186.8344 131.2947
  L 186.7857 145.2346
  A 0.37 0.37 0.0 0 0 187.1545 145.6059
  L 212.3943 145.6940
  A 0.37 0.37 0.0 0 0 212.7656 145.3253
  L 212.8143 131.3854
  Z
  M 239.39 131.64
  A 0.35 0.35 0.0 0 0 239.21 130.99
  L 216.69 130.99
  A 0.35 0.35 0.0 0 0 216.34 131.34
  L 216.34 144.98
  A 0.35 0.35 0.0 0 0 216.87 145.28
  L 239.39 131.64
  Z
  M 103.2678 131.2473
  A 0.31 0.31 0.0 0 0 102.9572 130.9379
  L 77.5773 130.9822
  A 0.31 0.31 0.0 0 0 77.2678 131.2927
  L 77.2922 145.2927
  A 0.31 0.31 0.0 0 0 77.6028 145.6021
  L 102.9827 145.5578
  A 0.31 0.31 0.0 0 0 103.2922 145.2473
  L 103.2678 131.2473
  Z
  M 183.43 131.33
  A 0.32 0.32 0.0 0 0 183.11 131.01
  L 164.62 131.01
  A 0.32 0.32 0.0 0 0 164.37 131.13
  L 153.03 145.10
  A 0.32 0.32 0.0 0 0 153.28 145.62
  L 183.11 145.62
  A 0.32 0.32 0.0 0 0 183.43 145.30
  L 183.43 131.33
  Z"
/>
<path fill="#f0a408" d="
  M 115.44 179.19
  Q 120.04 174.77 122.34 171.08
  C 124.74 167.24 127.30 163.69 129.27 160.08
  C 132.41 154.33 136.41 146.90 140.61 140.90
  C 143.35 136.99 144.96 132.54 147.75 128.59
  C 151.06 123.91 152.76 121.66 155.74 115.91
  Q 158.94 109.76 163.47 104.58
  A 0.72 0.71 -65.2 0 0 163.04 103.40
  Q 161.49 103.16 159.50 103.19
  Q 138.31 103.51 134.34 103.57
  Q 133.20 103.59 131.37 103.11
  A 0.53 0.53 0.0 0 1 131.05 102.31
  Q 144.78 81.09 151.22 71.72
  C 153.42 68.53 155.05 64.52 157.68 60.90
  C 161.54 55.56 165.17 50.90 168.74 44.76
  Q 171.18 40.57 174.13 36.70
  A 2.53 2.30 -19.1 0 0 174.42 36.17
  L 178.09 26.60
  L 185.28 18.65
  A 0.18 0.18 0.0 0 1 185.57 18.84
  L 152.50 91.80
  A 0.59 0.59 0.0 0 0 153.04 92.64
  L 188.98 92.64
  A 0.42 0.42 0.0 0 1 189.31 93.33
  L 111.13 189.62
  A 0.15 0.15 0.0 0 1 110.87 189.46
  L 115.44 179.19
  Z"
/>
<path fill="#112c43" d="
  M 106.66 55.91
  L 106.66 41.89
  A 0.33 0.33 0.0 0 1 106.85 41.59
  L 142.75 24.58
  A 0.33 0.33 0.0 0 1 143.22 24.88
  L 143.22 55.91
  A 0.33 0.33 0.0 0 1 142.89 56.24
  L 106.99 56.24
  A 0.33 0.33 0.0 0 1 106.66 55.91
  Z"
/>
<path fill="#112c43" d="
  M 146.70 54.97
  L 146.70 24.73
  A 0.32 0.32 0.0 0 1 147.16 24.44
  L 165.75 33.32
  A 0.32 0.32 0.0 0 1 165.85 33.82
  L 147.26 55.18
  A 0.32 0.32 0.0 0 1 146.70 54.97
  Z"
/>
<path fill="#f9c410" d="
  M 178.09 26.60
  L 174.42 36.17
  A 2.53 2.30 -19.1 0 1 174.13 36.70
  Q 171.18 40.57 168.74 44.76
  C 165.17 50.90 161.54 55.56 157.68 60.90
  C 155.05 64.52 153.42 68.53 151.22 71.72
  Q 144.78 81.09 131.05 102.31
  A 0.53 0.53 0.0 0 0 131.37 103.11
  Q 133.20 103.59 134.34 103.57
  Q 138.31 103.51 159.50 103.19
  Q 161.49 103.16 163.04 103.40
  A 0.72 0.71 -65.2 0 1 163.47 104.58
  Q 158.94 109.76 155.74 115.91
  C 152.76 121.66 151.06 123.91 147.75 128.59
  C 144.96 132.54 143.35 136.99 140.61 140.90
  C 136.41 146.90 132.41 154.33 129.27 160.08
  C 127.30 163.69 124.74 167.24 122.34 171.08
  Q 120.04 174.77 115.44 179.19
  L 142.19 114.87
  A 0.60 0.60 0.0 0 0 141.64 114.04
  L 103.91 114.04
  A 0.74 0.73 19.9 0 1 103.34 112.84
  C 105.10 110.74 106.14 108.79 108.13 106.61
  Q 118.51 95.25 129.54 82.29
  Q 134.38 76.60 144.26 65.92
  A 2.16 1.84 85.4 0 0 144.57 65.49
  Q 145.55 63.75 148.74 60.26
  Q 157.62 50.54 166.07 40.54
  Q 171.95 33.56 178.09 26.60
  Z"
/>
<path fill="#112c43" d="
  M 182.83 56.31
  L 174.21 56.31
  A 0.52 0.52 0.0 0 1 173.73 55.58
  L 180.42 40.81
  A 0.52 0.52 0.0 0 1 181.16 40.58
  L 183.09 41.69
  A 0.52 0.52 0.0 0 1 183.35 42.14
  L 183.35 55.79
  A 0.52 0.52 0.0 0 1 182.83 56.31
  Z"
/>
<path fill="#112c43" d="
  M 77.59 55.46
  L 102.63 43.60
  A 0.44 0.44 0.0 0 1 103.26 44.00
  L 103.26 55.86
  A 0.44 0.44 0.0 0 1 102.82 56.30
  L 77.78 56.30
  A 0.44 0.44 0.0 0 1 77.59 55.46
  Z"
/>
<path fill="#112c43" d="
  M 212.15 56.31
  L 187.21 56.31
  A 0.43 0.43 0.0 0 1 186.78 55.88
  L 186.78 43.97
  A 0.43 0.43 0.0 0 1 187.40 43.58
  L 212.34 55.49
  A 0.43 0.43 0.0 0 1 212.15 56.31
  Z"
/>
<path fill="#112c43" d="
  M 125.86 79.66
  L 106.98 79.66
  A 0.34 0.34 0.0 0 1 106.64 79.32
  L 106.64 60.06
  A 0.34 0.34 0.0 0 1 106.98 59.72
  L 142.62 59.72
  A 0.34 0.34 0.0 0 1 142.88 60.28
  L 126.11 79.54
  A 0.34 0.34 0.0 0 1 125.86 79.66
  Z"
/>
<rect fill="#112c43" x="77.31" y="59.67" width="25.94" height="20.02" rx="0.36"/>
<path fill="#112c43" d="
  M 172.40 59.71
  L 182.87 59.71
  A 0.52 0.52 0.0 0 1 183.39 60.23
  L 183.39 79.21
  A 0.52 0.52 0.0 0 1 182.87 79.73
  L 163.80 79.73
  A 0.52 0.52 0.0 0 1 163.32 79.00
  L 171.92 60.02
  A 0.52 0.52 0.0 0 1 172.40 59.71
  Z"
/>
<rect fill="#112c43" x="-12.97" y="-10.03" transform="translate(199.78,69.72) rotate(0.1)" width="25.94" height="20.06" rx="0.33"/>
<path fill="#112c43" d="
  M 52.09 79.75
  A 0.21 0.21 0.0 0 1 51.98 79.36
  L 73.03 67.20
  A 0.40 0.39 -14.8 0 1 73.62 67.54
  L 73.62 79.27
  A 0.49 0.48 -0.0 0 1 73.13 79.75
  L 52.09 79.75
  Z"
/>
<path fill="#112c43" d="
  M 237.73 79.81
  L 216.66 79.81
  A 0.30 0.30 0.0 0 1 216.36 79.51
  L 216.36 67.34
  A 0.30 0.30 0.0 0 1 216.81 67.08
  L 237.88 79.25
  A 0.30 0.30 0.0 0 1 237.73 79.81
  Z"
/>
<rect fill="#112c43" x="48.48" y="82.92" width="25.16" height="20.86" rx="0.44"/>
<path fill="#112c43" d="
  M 183.43 83.43
  L 183.43 87.72
  A 0.53 0.53 0.0 0 1 182.90 88.25
  L 159.78 88.25
  A 0.53 0.53 0.0 0 1 159.30 87.50
  L 161.24 83.21
  A 0.53 0.53 0.0 0 1 161.72 82.90
  L 182.90 82.90
  A 0.53 0.53 0.0 0 1 183.43 83.43
  Z"
/>
<rect fill="#112c43" x="-12.57" y="-10.42" transform="translate(228.91,93.32) rotate(0.1)" width="25.14" height="20.84" rx="0.48"/>
<rect fill="#112c43" x="-12.97" y="-10.42" transform="translate(90.28,93.35) rotate(0.1)" width="25.94" height="20.84" rx="0.36"/>
<path fill="#112c43" d="
  M 107.03 83.02
  L 122.17 83.02
  A 0.42 0.42 0.0 0 1 122.48 83.72
  L 107.35 101.10
  A 0.42 0.42 0.0 0 1 106.61 100.83
  L 106.61 83.44
  A 0.42 0.42 0.0 0 1 107.03 83.02
  Z"
/>
<path fill="#112c43" d="
  M 198.22 88.19
  L 187.22 88.19
  A 0.45 0.45 0.0 0 1 186.77 87.74
  L 186.77 83.40
  A 0.45 0.45 0.0 0 1 187.22 82.95
  L 212.34 82.95
  A 0.45 0.45 0.0 0 1 212.79 83.40
  L 212.79 103.29
  A 0.45 0.45 0.0 0 1 212.34 103.74
  L 187.48 103.74
  A 0.45 0.45 0.0 0 1 187.14 103.01
  L 198.56 88.92
  A 0.45 0.45 0.0 0 0 198.22 88.19
  Z"
/>
<rect fill="#112c43" x="-12.57" y="-10.40" transform="translate(61.03,117.42) rotate(0.1)" width="25.14" height="20.80" rx="0.30"/>
<path fill="#112c43" d="
  M 92.99 118.56
  L 102.95 118.56
  A 0.35 0.35 0.0 0 1 103.30 118.91
  L 103.30 127.44
  A 0.35 0.35 0.0 0 1 102.95 127.79
  L 77.68 127.79
  A 0.35 0.35 0.0 0 1 77.33 127.44
  L 77.33 107.37
  A 0.35 0.35 0.0 0 1 77.68 107.02
  L 101.49 107.02
  A 0.35 0.35 0.0 0 1 101.76 107.60
  L 92.72 117.98
  A 0.35 0.35 0.0 0 0 92.99 118.56
  Z"
/>
<rect fill="#112c43" x="-12.97" y="-10.40" transform="translate(199.78,117.43) rotate(-0.1)" width="25.94" height="20.80" rx="0.51"/>
<rect fill="#112c43" x="216.35" y="107.05" width="25.16" height="20.78" rx="0.43"/>
<path fill="#112c43" d="
  M 183.07 127.83
  L 167.73 127.83
  A 0.34 0.34 0.0 0 1 167.47 127.28
  L 182.81 108.39
  A 0.34 0.34 0.0 0 1 183.41 108.61
  L 183.41 127.49
  A 0.34 0.34 0.0 0 1 183.07 127.83
  Z"
/>
<path fill="#112c43" d="
  M 106.60 127.14
  L 106.60 119.17
  A 0.68 0.68 0.0 0 1 107.28 118.49
  L 134.87 118.49
  A 0.68 0.68 0.0 0 1 135.48 119.45
  L 131.87 127.42
  A 0.68 0.68 0.0 0 1 131.25 127.82
  L 107.28 127.82
  A 0.68 0.68 0.0 0 1 106.60 127.14
  Z"
/>
<path fill="#112c43" d="
  M 50.88 130.95
  L 73.15 130.95
  A 0.51 0.51 0.0 0 1 73.66 131.46
  L 73.66 144.32
  A 0.51 0.51 0.0 0 1 72.89 144.76
  L 50.63 131.90
  A 0.51 0.51 0.0 0 1 50.88 130.95
  Z"
/>
<path fill="#112c43" d="
  M 106.63 145.29
  L 106.63 131.28
  A 0.30 0.30 0.0 0 1 106.93 130.98
  L 130.23 130.98
  A 0.30 0.30 0.0 0 1 130.51 131.40
  L 124.15 145.41
  A 0.30 0.30 0.0 0 1 123.88 145.59
  L 106.93 145.59
  A 0.30 0.30 0.0 0 1 106.63 145.29
  Z"
/>
<rect fill="#112c43" x="-12.99" y="-7.34" transform="translate(199.80,138.31) rotate(0.2)" width="25.98" height="14.68" rx="0.37"/>
<path fill="#112c43" d="
  M 239.39 131.64
  L 216.87 145.28
  A 0.35 0.35 0.0 0 1 216.34 144.98
  L 216.34 131.34
  A 0.35 0.35 0.0 0 1 216.69 130.99
  L 239.21 130.99
  A 0.35 0.35 0.0 0 1 239.39 131.64
  Z"
/>
<rect fill="#112c43" x="-13.00" y="-7.31" transform="translate(90.28,138.27) rotate(-0.1)" width="26.00" height="14.62" rx="0.31"/>
<path fill="#112c43" d="
  M 183.43 131.33
  L 183.43 145.30
  A 0.32 0.32 0.0 0 1 183.11 145.62
  L 153.28 145.62
  A 0.32 0.32 0.0 0 1 153.03 145.10
  L 164.37 131.13
  A 0.32 0.32 0.0 0 1 164.62 131.01
  L 183.11 131.01
  A 0.32 0.32 0.0 0 1 183.43 131.33
  Z"
/>
</svg>
